<svg width="29" height="29" viewBox="0 0 29 29" fill="none" xmlns="http://www.w3.org/2000/svg">
<g clip-path="url(#clip0_252_50)">
<path d="M14.1121 14.7124L3.11206 8.21243L14.1121 1.71243L25.1121 8.21243L14.1121 14.7124Z" fill="#EDB25E"/>
<path opacity="0.8" d="M17.7716 12.5479L6.77164 6.04794L10.4525 3.87693L21.4525 10.3769L17.7716 12.5479Z" fill="white"/>
<path d="M14.1121 14.7124L3.11206 8.21243V21.2124L14.1121 27.7124V14.7124Z" fill="#AD721F"/>
<path d="M14.1121 14.7124L25.1121 8.21243V21.2124L14.1121 27.7124V14.7124Z" fill="#FFB337"/>
<path d="M14.1121 14.7124L25.1121 8.21243V21.2124L14.1121 27.7124V14.7124Z" fill="#C9811D"/>
<path opacity="0.8" d="M21.4558 16.2713L21.4558 10.3726L17.7716 12.5461L17.7716 18.1458C17.7716 18.5331 18.1931 18.7734 18.5264 18.576L20.9653 17.1318C21.2694 16.9517 21.4558 16.6246 21.4558 16.2713Z" fill="white"/>
<path fill-rule="evenodd" clip-rule="evenodd" d="M15.1295 1.15212L25.1295 7.06122C25.7385 7.42105 26.1121 8.07576 26.1121 8.78307V20.6418C26.1121 21.3491 25.7385 22.0038 25.1295 22.3637L15.1295 28.2728C14.5019 28.6436 13.7222 28.6436 13.0946 28.2728L3.0946 22.3637C2.48566 22.0038 2.11206 21.3491 2.11206 20.6418V8.78307C2.11206 8.07576 2.48566 7.42105 3.0946 7.06122L13.0946 1.15212C13.7222 0.781262 14.5019 0.781262 15.1295 1.15212ZM14.6208 2.01305C14.307 1.82762 13.9171 1.82762 13.6033 2.01305L3.60333 7.92214C3.29886 8.10206 3.11206 8.42941 3.11206 8.78307V20.6418C3.11206 20.9955 3.29886 21.3228 3.60333 21.5027L13.6033 27.4118C13.9171 27.5973 14.307 27.5973 14.6208 27.4118L24.6208 21.5027C24.9253 21.3228 25.1121 20.9955 25.1121 20.6418V8.78307C25.1121 8.42941 24.9253 8.10206 24.6208 7.92214L14.6208 2.01305Z" fill="#AD721F"/>
</g>
<defs>
<clipPath id="clip0_252_50">
<rect width="28" height="28" fill="white" transform="translate(0.0845947 0.712433)"/>
</clipPath>
</defs>
</svg>
